<svg xmlns="http://www.w3.org/2000/svg" version="1.1" xmlns:xlink="http://www.w3.org/1999/xlink"
     xmlns:svgjs="http://svgjs.com/svgjs" width="512" height="512" x="0" y="0" viewBox="0 0 64 64"
     style="enable-background:new 0 0 512 512" xml:space="preserve" class=""><g><g><path d="m24.001 21c-8.822 0-16 7.178-16 16s7.178 16 16 16 16-7.178 16-16-7.178-16-16-16zm0 30c-7.72 0-14-6.28-14-14s6.28-14 14-14 14 6.28 14 14-6.28 14-14 14z" fill="hsl(var(--p))" data-original="#000000" class=""></path><path
        d="m24.001 26c-6.066 0-11 4.935-11 11s4.934 11 11 11c6.065 0 11-4.935 11-11s-4.935-11-11-11zm0 20c-4.963 0-9-4.037-9-9s4.037-9 9-9 9 4.037 9 9-4.037 9-9 9z"
        fill="hsl(var(--p))" data-original="#000000" class=""></path><path
        d="m30.001 36c-.553 0-1 .447-1 1 0 2.757-2.243 5-5 5-.553 0-1 .447-1 1s.447 1 1 1c3.859 0 7-3.141 7-7 0-.553-.447-1-1-1z"
        fill="hsl(var(--p))" data-original="#000000" class=""></path><path
        d="m63 48h-1.185c.113-.314.185-.647.185-1v-1c0-.771-.301-1.468-.78-2 .479-.532.78-1.229.78-2v-1c0-1.654-1.346-3-3-3h-10.999v-32c0-2.206-1.794-4-4-4h-40c-2.206 0-4 1.794-4 4v8.995c0 .002-.001.003-.001.005s.001.003.001.005v42.995c0 2.206 1.794 4 4 4h55.999c2.206 0 4-1.794 4-4v-9c0-.553-.447-1-1-1zm-19-1v-1c0-.552.448-1 1-1h14c.552 0 1 .448 1 1v1c0 .552-.448 1-1 1h-14c-.552 0-1-.448-1-1zm16-6v1c0 .552-.448 1-1 1h-14c-.552 0-1-.448-1-1v-1c0-.552.448-1 1-1h14c.552 0 1 .448 1 1zm-55.999-37h40c1.102 0 2 .898 2 2v8h-44v-8c0-1.102.897-2 2-2zm-2 54v-42h44v22h-1.001c-1.654 0-3 1.346-3 3v1c0 .771.301 1.468.78 2-.479.532-.78 1.229-.78 2v1c0 .353.072.686.185 1h-1.185c-.553 0-1 .447-1 1v9c0 .731.212 1.409.557 2h-36.556c-1.103 0-2-.897-2-2zm59.999 0c0 1.103-.898 2-2 2h-16c-1.103 0-2-.897-2-2v-8h20z"
        fill="hsl(var(--p))" data-original="#000000" class=""></path><path
        d="m7 12c1.654 0 3-1.346 3-3s-1.346-3-3-3-3 1.346-3 3 1.346 3 3 3zm0-4c.552 0 1 .448 1 1s-.448 1-1 1-1-.448-1-1 .448-1 1-1z"
        fill="hsl(var(--p))" data-original="#000000" class=""></path><path
        d="m41 12c1.654 0 3-1.346 3-3s-1.346-3-3-3-3 1.346-3 3 1.346 3 3 3zm0-4c.552 0 1 .448 1 1s-.448 1-1 1-1-.448-1-1 .448-1 1-1z"
        fill="hsl(var(--p))" data-original="#000000" class=""></path><path
        d="m27 12h6c1.654 0 3-1.346 3-3s-1.346-3-3-3h-6c-1.654 0-3 1.346-3 3s1.346 3 3 3zm0-4h6c.552 0 1 .448 1 1s-.448 1-1 1h-6c-.552 0-1-.448-1-1s.448-1 1-1z"
        fill="hsl(var(--p))" data-original="#000000" class=""></path></g></g></svg>